<svg xmlns="http://www.w3.org/2000/svg" width="802" height="214" fill="none" viewBox="0 0 802 214">
  <path fill="#fff" d="M18.896 208.44c-3.648 0-6.72-1.248-9.216-3.744-2.496-2.496-3.744-5.568-3.744-9.216V19.224c0-3.648 1.248-6.72 3.744-9.216 2.496-2.688 5.568-4.032 9.216-4.032h112.032c3.456 0 6.336 1.248 8.64 3.744 2.496 2.304 3.744 5.184 3.744 8.64 0 3.456-1.248 6.336-3.744 8.64-2.304 2.304-5.184 3.456-8.64 3.456H32.144v63.648h88.704c3.456 0 6.336 1.248 8.64 3.744 2.496 2.304 3.744 5.184 3.744 8.64 0 3.456-1.248 6.336-3.744 8.64-2.304 2.304-5.184 3.456-8.64 3.456H32.144v76.896c0 3.648-1.344 6.72-4.032 9.216-2.496 2.496-5.568 3.744-9.216 3.744zM189.795 207c-3.648 0-6.72-1.248-9.216-3.744-2.496-2.496-3.744-5.568-3.744-9.216V19.224c0-3.648 1.248-6.72 3.744-9.216 2.496-2.688 5.568-4.032 9.216-4.032h115.488c3.456 0 6.336 1.248 8.64 3.744 2.496 2.304 3.744 5.184 3.744 8.64 0 3.456-1.248 6.336-3.744 8.64-2.304 2.304-5.184 3.456-8.64 3.456h-102.24v63.648h91.872c3.456 0 6.336 1.248 8.64 3.744 2.496 2.304 3.744 5.184 3.744 8.64 0 3.456-1.248 6.336-3.744 8.64-2.304 2.304-5.184 3.456-8.64 3.456h-91.872v63.936h102.24c3.456 0 6.336 1.248 8.64 3.744 2.496 2.304 3.744 5.184 3.744 8.64 0 3.456-1.248 6.336-3.744 8.64-2.304 2.304-5.184 3.456-8.64 3.456H189.795zm179.336 0c-3.648 0-6.72-1.248-9.216-3.744-2.496-2.496-3.744-5.568-3.744-9.216V19.224c0-3.648 1.248-6.72 3.744-9.216 2.496-2.688 5.568-4.032 9.216-4.032h57.888c21.888 0 40.416 4.896 55.584 14.688 15.36 9.6 26.88 22.08 34.56 37.44 7.68 15.36 11.52 31.488 11.52 48.384s-3.84 33.024-11.52 48.384-19.2 27.936-34.56 37.728c-15.168 9.6-33.696 14.4-55.584 14.4h-57.888zm54.72-24.48c15.744 0 29.568-3.168 41.472-9.504 11.904-6.528 21.12-15.456 27.648-26.784 6.528-11.52 9.792-24.768 9.792-39.744 0-14.976-3.264-28.128-9.792-39.456-6.528-11.52-15.744-20.448-27.648-26.784-11.904-6.528-25.728-9.792-41.472-9.792h-41.472V182.52h41.472z"/>
  <path fill="#fff" d="M9.68 204.696l3.535-3.536-3.535 3.536zm0-194.688l3.535 3.535.066-.065.063-.068-3.664-3.402zm129.888-.288l-3.674 3.391.136.147.147.136 3.391-3.674zm0 17.28l-3.391-3.674-.074.068-.071.07L139.568 27zM32.144 30.456v-5h-5v5h5zm0 63.648h-5v5h5v-5zm97.344 3.744l-3.674 3.391.136.147.147.136 3.391-3.674zm0 17.28l-3.391-3.674-.074.068-.071.07 3.536 3.536zm-97.344 3.456v-5h-5v5h5zm-4.032 86.112l-3.402-3.664-.068.063-.066.065 3.536 3.536zm-9.216-1.256c-2.371 0-4.157-.756-5.68-2.28l-7.072 7.072c3.469 3.468 7.828 5.208 12.752 5.208v-10zm-5.68-2.28c-1.524-1.523-2.28-3.308-2.28-5.68h-10c0 4.924 1.74 9.283 5.209 12.752l7.07-7.072h.001zm-2.28-5.68V19.224h-10V195.48h10zm0-176.256c0-2.371.756-4.157 2.28-5.68L6.144 6.472C2.676 9.941.936 14.3.936 19.224h10zm2.408-5.814c1.556-1.675 3.303-2.434 5.552-2.434v-10c-5.047 0-9.444 1.93-12.88 5.63l7.328 6.804zm5.552-2.434h112.032v-10H18.896v10zm112.032 0c2.088 0 3.627.685 4.966 2.135l7.348-6.782c-3.269-3.542-7.49-5.353-12.314-5.353v10zm5.249 2.418c1.45 1.339 2.135 2.878 2.135 4.966h10c0-4.824-1.811-9.045-5.353-12.314l-6.782 7.348zm2.135 4.966c0 2.088-.685 3.627-2.135 4.966l6.782 7.348c3.542-3.27 5.353-7.49 5.353-12.314h-10zm-2.28 5.105c-1.305 1.304-2.885 1.991-5.104 1.991v10c4.693 0 8.873-1.618 12.176-4.92l-7.072-7.072v.001zm-5.104 1.991H32.144v10h98.784v-10zm-103.784 5v63.648h10V30.456h-10zm5 68.648h88.704v-10H32.144v10zm88.704 0c2.088 0 3.627.685 4.966 2.135l7.348-6.782c-3.269-3.542-7.49-5.353-12.314-5.353v10zm5.249 2.418c1.45 1.339 2.135 2.878 2.135 4.966h10c0-4.824-1.811-9.045-5.353-12.314l-6.782 7.348zm2.135 4.966c0 2.088-.685 3.627-2.135 4.966l6.782 7.348c3.542-3.269 5.353-7.49 5.353-12.314h-10zm-2.28 5.104c-1.305 1.305-2.885 1.992-5.104 1.992v10c4.693 0 8.873-1.617 12.176-4.92l-7.072-7.072zm-5.104 1.992H32.144v10h88.704v-10zm-93.704 5v76.896h10v-76.896h-10zm0 76.896c0 2.249-.759 3.996-2.434 5.552l6.804 7.328c3.7-3.436 5.63-7.833 5.63-12.88h-10zm-2.567 5.68c-1.524 1.524-3.31 2.28-5.681 2.28v10c4.925 0 9.283-1.74 12.752-5.208l-7.072-7.072h.001zm156.002 2.096l3.535-3.536-3.535 3.536zm0-193.248l3.535 3.535.066-.065.063-.068-3.664-3.402zm133.344-.288l-3.674 3.391.135.147.147.136 3.392-3.674zm0 17.28l-3.392-3.674-.073.068-.071.07L313.923 27zm-110.88 3.456v-5h-5v5h5zm0 63.648h-5v5h5v-5zm100.512 3.744l-3.674 3.391.135.147.147.136 3.392-3.674zm0 17.28l-3.392-3.674-.073.068-.071.07 3.536 3.536zm-100.512 3.456v-5h-5v5h5zm0 63.936h-5v5h5v-5zm110.88 3.744l-3.674 3.391.135.147.147.136 3.392-3.674zm0 17.28l-3.392-3.674-.073.068-.071.07 3.536 3.536zM189.795 202c-2.372 0-4.157-.756-5.681-2.28l-7.071 7.072c3.468 3.468 7.827 5.208 12.752 5.208v-10zm-5.681-2.28c-1.524-1.523-2.279-3.308-2.279-5.68h-10c0 4.924 1.74 9.283 5.208 12.752l7.071-7.072zm-2.279-5.68V19.224h-10V194.04h10zm0-174.816c0-2.371.755-4.157 2.279-5.68l-7.071-7.072c-3.468 3.469-5.208 7.828-5.208 12.752h10zm2.408-5.814c1.556-1.675 3.303-2.434 5.552-2.434v-10c-5.047 0-9.444 1.93-12.88 5.63l7.328 6.804zm5.552-2.434h115.488v-10H189.795v10zm115.488 0c2.088 0 3.627.685 4.966 2.135l7.348-6.782c-3.269-3.542-7.49-5.353-12.314-5.353v10zm5.248 2.418c1.451 1.339 2.136 2.878 2.136 4.966h10c0-4.824-1.811-9.045-5.353-12.314l-6.783 7.348zm2.136 4.966c0 2.088-.685 3.627-2.136 4.966l6.783 7.348c3.542-3.27 5.353-7.49 5.353-12.314h-10zm-2.28 5.105c-1.305 1.304-2.885 1.991-5.104 1.991v10c4.693 0 8.872-1.618 12.175-4.92l-7.071-7.072v.001zm-5.104 1.991h-102.24v10h102.24v-10zm-107.24 5v63.648h10V30.456h-10zm5 68.648h91.872v-10h-91.872v10zm91.872 0c2.088 0 3.627.685 4.966 2.135l7.348-6.782c-3.269-3.542-7.49-5.353-12.314-5.353v10zm5.248 2.418c1.451 1.339 2.136 2.878 2.136 4.966h10c0-4.824-1.811-9.045-5.353-12.314l-6.783 7.348zm2.136 4.966c0 2.088-.685 3.627-2.136 4.966l6.783 7.348c3.542-3.269 5.353-7.49 5.353-12.314h-10zm-2.28 5.104c-1.305 1.305-2.885 1.992-5.104 1.992v10c4.693 0 8.872-1.617 12.175-4.92l-7.071-7.072zm-5.104 1.992h-91.872v10h91.872v-10zm-96.872 5v63.936h10v-63.936h-10zm5 68.936h102.24v-10h-102.24v10zm102.24 0c2.088 0 3.627.685 4.966 2.135l7.348-6.782c-3.269-3.542-7.49-5.353-12.314-5.353v10zm5.248 2.418c1.451 1.339 2.136 2.878 2.136 4.966h10c0-4.824-1.811-9.045-5.353-12.314l-6.783 7.348zm2.136 4.966c0 2.088-.685 3.627-2.136 4.966l6.783 7.348c3.542-3.269 5.353-7.49 5.353-12.314h-10zm-2.28 5.104c-1.305 1.305-2.885 1.992-5.104 1.992v10c4.693 0 8.872-1.617 12.175-4.92l-7.071-7.072zM305.283 202H189.795v10h115.488v-10zm54.632 1.256l3.536-3.536-3.536 3.536zm0-193.248l3.536 3.535.065-.065.063-.068-3.664-3.402zm122.688 10.656l-2.712 4.2.031.02.031.02 2.65-4.24zm34.56 37.44l-4.472 2.236 4.472-2.236zm0 96.768l-4.472-2.236 4.472 2.236zm-34.56 37.728l2.674 4.225.007-.004.007-.005-2.688-4.216zm-17.28-19.584l2.349 4.414.028-.015.027-.015-2.404-4.384zm27.648-26.784l4.332 2.496.009-.015.009-.016-4.35-2.465zm0-79.2l-4.35 2.465.009.016.009.015 4.332-2.496zm-27.648-26.784l-2.404 4.384.027.015.028.015 2.349-4.414zm-82.944-9.792v-5h-5v5h5zm0 152.064h-5v5h5v-5zM369.131 202c-2.372 0-4.157-.756-5.68-2.28l-7.072 7.072c3.469 3.468 7.827 5.208 12.752 5.208v-10zm-5.68-2.28c-1.524-1.523-2.28-3.308-2.28-5.68h-10c0 4.924 1.74 9.283 5.208 12.752l7.072-7.072zm-2.28-5.68V19.224h-10V194.04h10zm0-174.816c0-2.371.756-4.157 2.28-5.68l-7.072-7.072c-3.468 3.469-5.208 7.828-5.208 12.752h10zm2.408-5.814c1.556-1.675 3.303-2.434 5.552-2.434v-10c-5.047 0-9.444 1.93-12.88 5.63l7.328 6.804zm5.552-2.434h57.888v-10h-57.888v10zm57.888 0c21.132 0 38.67 4.72 52.872 13.889l5.424-8.402C469.181 6.048 449.663.976 427.019.976v10zm52.934 13.928c14.624 9.14 25.492 20.945 32.738 35.436l8.944-4.472c-8.114-16.229-20.286-29.384-36.382-39.444l-5.3 8.48zm32.738 35.436c7.339 14.678 10.992 30.041 10.992 46.148h10c0-17.685-4.027-34.578-12.048-50.62l-8.944 4.472zm10.992 46.148c0 16.107-3.653 31.47-10.992 46.148l8.944 4.472c8.021-16.042 12.048-32.935 12.048-50.62h-10zm-10.992 46.148c-7.251 14.501-18.131 26.412-32.776 35.748l5.376 8.432c16.075-10.248 28.235-23.489 36.344-39.708l-8.944-4.472zm-32.762 35.739c-14.208 8.993-31.76 13.625-52.91 13.625v10c22.626 0 42.13-4.968 58.258-15.175l-5.348-8.45zM427.019 202h-57.888v10h57.888v-10zm-3.168-14.48c16.426 0 31.082-3.309 43.821-10.09l-4.698-8.828c-11.069 5.891-24.061 8.918-39.123 8.918v10zm43.876-10.12c12.675-6.951 22.573-16.518 29.576-28.672l-8.664-4.992c-6.053 10.502-14.587 18.791-25.72 24.896l4.808 8.768zm29.594-28.703c7.007-12.366 10.442-26.484 10.442-42.209h-10c0 14.227-3.094 26.605-9.142 37.279l8.7 4.93zm10.442-42.209c0-15.723-3.434-29.76-10.46-41.953l-8.664 4.993c6.03 10.464 9.124 22.731 9.124 36.96h10zm-10.442-41.921c-7.005-12.362-16.923-21.959-29.649-28.733l-4.698 8.828c11.082 5.898 19.596 14.157 25.647 24.835l8.7-4.93zm-29.594-28.703c-12.751-6.993-27.427-10.408-43.876-10.408v10c15.039 0 28.011 3.112 39.068 9.176l4.808-8.768zm-43.876-10.408h-41.472v10h41.472v-10zm-46.472 5V182.52h10V30.456h-10zm5 157.064h41.472v-10h-41.472v10zM601 31.143h-18c-4.988 0-9 5.04-9 11.303v48.983h-9c-1.65 0-3 1.695-3 3.767v22.608c0 2.072 1.35 3.767 3 3.767h9v48.983c0 6.264 4.012 11.303 9 11.303h18c4.988 0 9-5.039 9-11.303V42.446c0-6.264-4.012-11.303-9-11.303zm198 60.286h-9V42.446c0-6.264-4.012-11.303-9-11.303h-18c-4.988 0-9 5.04-9 11.303v128.108c0 6.264 4.012 11.303 9 11.303h18c4.988 0 9-5.039 9-11.303v-48.983h9c1.65 0 3-1.695 3-3.767V95.196c0-2.072-1.35-3.767-3-3.767zM733 1h-18c-4.988 0-9 5.04-9 11.304v79.125h-48V12.304C658 6.04 653.988 1 649 1h-18c-4.988 0-9 5.04-9 11.304v188.392c0 6.264 4.012 11.304 9 11.304h18c4.988 0 9-5.04 9-11.304v-79.125h48v79.125c0 6.264 4.012 11.304 9 11.304h18c4.988 0 9-5.04 9-11.304V12.304C742 6.04 737.988 1 733 1z"/>
</svg>
